# xmcd
#
# Track frame offsets: 
#        150
#        11087
#        22120
#        35362
#        48975
#        59780
#        68887
#        83690
#        94705
#        109792
#        120852
#        135935
#
# Disc length: 1961 seconds
#
# Revision: 0
# Processed by: cddbd v1.5PL3 Copyright (c) Steve Scherf et al.
# Submitted via: ExactAudioCopy v0.95a5
#
DISCID=9607a70c
DTITLE=Wildwood Valley Boys - I'm A Believer
DYEAR=2000
DGENRE=Bluegrass
TTITLE0=Are You On The Right Road
TTITLE1=Preach The Word Of The Lord
TTITLE2=I Found A Friend
TTITLE3=When Jesus Comes Down
TTITLE4=A Box Seat In Heaven
TTITLE5=Street Preacher
TTITLE6=The Roses Must Die
TTITLE7=The Church Bells Are Ringing Again
TTITLE8=Wait A Little Longer, Please Jesus
TTITLE9=You Better Talk To The Lord
TTITLE10=Dreaming Of A Little Cabin
TTITLE11=I'm A Believer
EXTD=
EXTT0=
EXTT1=
EXTT2=
EXTT3=
EXTT4=
EXTT5=
EXTT6=
EXTT7=
EXTT8=
EXTT9=
EXTT10=
EXTT11=
PLAYORDER=
